<svg xmlns="http://www.w3.org/2000/svg" width="720" height="700" viewBox="0 0 720 700" role="img" aria-labelledby="statsTitle statsDesc"><title id="statsTitle">SkillAura GitHub Stats</title><desc id="statsDesc">Portfolio repository statistics from the twelve approved SkillAura projects: 0 stars, 424 default-branch commits, 13 pull requests, 0 issues, and 11 repositories active in the last twelve months.</desc><defs><linearGradient id="bg" x1="0" y1="0" x2="1" y2="1"><stop stop-color="#070b14"/><stop offset=".55" stop-color="#10172a"/><stop offset="1" stop-color="#0a1020"/></linearGradient><linearGradient id="edge"><stop stop-color="#38bdf8"/><stop offset=".55" stop-color="#8b5cf6"/><stop offset="1" stop-color="#f59e0b"/></linearGradient></defs><style>.eyebrow{font:700 12px ui-monospace,monospace;fill:#879bb6;letter-spacing:1.4px}.title{font:800 31px ui-sans-serif,system-ui;fill:#f8fafc}.label{font:700 12px ui-monospace,monospace;fill:#a9b9cd;letter-spacing:.7px}.value{font:800 27px ui-sans-serif,system-ui;fill:#f8fafc}.score{font:800 43px ui-sans-serif,system-ui;fill:#f8fafc}.small{font:600 10px ui-monospace,monospace;fill:#71849e;letter-spacing:.5px}.status{font:800 10px ui-monospace,monospace;fill:#70e1c1;letter-spacing:1px}</style><rect x="4" y="4" width="712" height="692" rx="28" fill="#040711" stroke="#172033" stroke-width="8"/><rect x="10" y="10" width="700" height="680" rx="22" fill="url(#bg)" stroke="url(#edge)" stroke-opacity=".75"/><circle cx="44" cy="46" r="5" fill="#41d7b2"/><text x="58" y="50" class="status">SYNCED</text><text x="674" y="50" text-anchor="end" class="small">2026-10-03 09:33 UTC</text><text x="42" y="105" class="eyebrow">SKILLAURA // PORTFOLIO INTELLIGENCE</text><text x="42" y="145" class="title">GitHub Stats</text><g transform="translate(54 178)" fill="none" stroke="#7dd3fc" stroke-width="2" stroke-linecap="round" stroke-linejoin="round"><path d="M12 2.8l2.7 5.5 6.1.9-4.4 4.3 1 6.1-5.4-2.9-5.4 2.9 1-6.1-4.4-4.3 6.1-.9z"/></g><text x="94" y="193" class="label">TOTAL STARS EARNED</text><text x="650" y="203" text-anchor="end" class="value">0</text><line x1="50" y1="227" x2="670" y2="227" stroke="#1f2c40"/><g transform="translate(54 248)" fill="none" stroke="#7dd3fc" stroke-width="2" stroke-linecap="round" stroke-linejoin="round"><circle cx="5" cy="12" r="3"/><circle cx="19" cy="12" r="3"/><path d="M8 12h8"/></g><text x="94" y="263" class="label">TRACKED COMMITS</text><text x="650" y="273" text-anchor="end" class="value">424</text><line x1="50" y1="297" x2="670" y2="297" stroke="#1f2c40"/><g transform="translate(54 318)" fill="none" stroke="#7dd3fc" stroke-width="2" stroke-linecap="round" stroke-linejoin="round"><circle cx="6" cy="5" r="2.5"/><circle cx="18" cy="19" r="2.5"/><path d="M6 8v9a2 2 0 002 2h7M18 16V8a3 3 0 00-3-3h-3"/></g><text x="94" y="333" class="label">PULL REQUESTS</text><text x="650" y="343" text-anchor="end" class="value">13</text><line x1="50" y1="367" x2="670" y2="367" stroke="#1f2c40"/><g transform="translate(54 388)" fill="none" stroke="#7dd3fc" stroke-width="2" stroke-linecap="round" stroke-linejoin="round"><circle cx="12" cy="12" r="9"/><path d="M12 7v6M12 17h.01"/></g><text x="94" y="403" class="label">ISSUES</text><text x="650" y="413" text-anchor="end" class="value">0</text><line x1="50" y1="437" x2="670" y2="437" stroke="#1f2c40"/><g transform="translate(54 458)" fill="none" stroke="#7dd3fc" stroke-width="2" stroke-linecap="round" stroke-linejoin="round"><rect x="3" y="4" width="18" height="16" rx="3"/><path d="M7 9h10M7 14h6"/></g><text x="94" y="473" class="label">ACTIVE REPOSITORIES · 12M</text><text x="650" y="483" text-anchor="end" class="value">11</text><line x1="50" y1="507" x2="670" y2="507" stroke="#1f2c40"/><g transform="translate(360 606)"><circle r="70" fill="#0b1220" stroke="#24324a" stroke-width="13"/><circle r="70" fill="none" stroke="#8b5cf6" stroke-width="13" stroke-linecap="round" stroke-dasharray="404.6 439.8" transform="rotate(-90)"/><text y="4" text-anchor="middle" class="score">92%</text><text y="28" text-anchor="middle" class="small">ACTIVE COVERAGE</text></g><text x="42" y="670" class="small">APPROVED SKILLAURA PROJECTS · FORK + EXTERNAL WORK EXCLUDED</text></svg>
