<svg xmlns="http://www.w3.org/2000/svg" width="720" height="1873" viewBox="0 0 720 1873" role="img" aria-labelledby="title desc"><title id="title">SkillAura Project Directory</title><desc id="desc">Eight public SkillAura portfolio projects</desc><style>.name{font:800 19px ui-sans-serif,system-ui;fill:#f8fafc}.badge{font:800 9px ui-monospace,monospace;fill:#7dd3fc;letter-spacing:1px}.desc{font:500 12px ui-sans-serif,system-ui;fill:#cbd5e1}.meta{font:600 10px ui-monospace,monospace;fill:#8fa3bd}.date{font:600 9.5px ui-monospace,monospace;fill:#71849e}.link{font:800 10px ui-monospace,monospace;fill:#a78bfa}.glyph{font:800 22px ui-sans-serif,system-ui;fill:#7dd3fc}.title{font:800 27px ui-sans-serif,system-ui;fill:#f8fafc}.sub{font:400 11px ui-sans-serif,system-ui;fill:#71849e}</style><rect width="720" height="1873" rx="24" fill="#080e1b"/><text x="34" y="42" class="title">SkillAura Project Directory</text><text x="34" y="65" class="sub">Eight public SkillAura portfolio projects</text><g transform="translate(34 95)"><rect width="652" height="196" rx="20" fill="#0d1627" stroke="#26344a"/><rect x="20" y="20" width="48" height="48" rx="14" fill="#132442" stroke="#31517a"/><text x="44" y="51" text-anchor="middle" class="glyph">A</text><text x="84" y="39" class="name">Anisha</text><text x="84" y="61" class="badge">PUBLIC</text><text x="20" y="96" class="desc"><tspan x="20" dy="0">Telegram music-streaming bot implemented primarily in Python.</tspan></text><text x="20" y="144" class="meta">Python · Python · Telegram</text><text x="20" y="174" class="date">UPDATED · May 30, 2026</text><text x="632" y="174" text-anchor="end" class="link">VIEW REPOSITORY →</text></g><g transform="translate(34 315)"><rect width="652" height="196" rx="20" fill="#0d1627" stroke="#26344a"/><rect x="20" y="20" width="48" height="48" rx="14" fill="#132442" stroke="#31517a"/><text x="44" y="51" text-anchor="middle" class="glyph">A</text><text x="84" y="39" class="name">Attractive Beauty Parlour</text><text x="84" y="61" class="badge">PUBLIC</text><text x="20" y="96" class="desc"><tspan x="20" dy="0">Beauty-parlour website with service, gallery, contact, offer, and administration</tspan><tspan x="20" dy="19">interfaces.</tspan></text><text x="20" y="144" class="meta">TypeScript · TypeScript · React</text><text x="20" y="174" class="date">UPDATED · Jul 6, 2026</text><text x="632" y="174" text-anchor="end" class="link">VIEW REPOSITORY →</text></g><g transform="translate(34 535)"><rect width="652" height="196" rx="20" fill="#0d1627" stroke="#26344a"/><rect x="20" y="20" width="48" height="48" rx="14" fill="#132442" stroke="#31517a"/><text x="44" y="51" text-anchor="middle" class="glyph">E</text><text x="84" y="39" class="name">Empire RPG Bot</text><text x="84" y="61" class="badge">PUBLIC</text><text x="20" y="96" class="desc"><tspan x="20" dy="0">Telegram role-playing game bot.</tspan></text><text x="20" y="144" class="meta">Python · Python · Telegram</text><text x="20" y="174" class="date">UPDATED · Jun 8, 2026</text><text x="632" y="174" text-anchor="end" class="link">VIEW REPOSITORY →</text></g><g transform="translate(34 755)"><rect width="652" height="196" rx="20" fill="#0d1627" stroke="#26344a"/><rect x="20" y="20" width="48" height="48" rx="14" fill="#132442" stroke="#31517a"/><text x="44" y="51" text-anchor="middle" class="glyph">I</text><text x="84" y="39" class="name">Innovathon-Public</text><text x="84" y="61" class="badge">PUBLIC</text><text x="20" y="96" class="desc"><tspan x="20" dy="0">Public hackathon-platform repository.</tspan></text><text x="20" y="144" class="meta">JavaScript · JavaScript</text><text x="20" y="174" class="date">UPDATED · Apr 26, 2026</text><text x="632" y="174" text-anchor="end" class="link">VIEW REPOSITORY →</text></g><g transform="translate(34 975)"><rect width="652" height="196" rx="20" fill="#0d1627" stroke="#26344a"/><rect x="20" y="20" width="48" height="48" rx="14" fill="#132442" stroke="#31517a"/><text x="44" y="51" text-anchor="middle" class="glyph">S</text><text x="84" y="39" class="name">Shivratri</text><text x="84" y="61" class="badge">PUBLIC</text><text x="20" y="96" class="desc"><tspan x="20" dy="0">Python sketch animation created for Maha Shivratri.</tspan></text><text x="20" y="144" class="meta">Python · Python</text><text x="20" y="174" class="date">UPDATED · Jul 23, 2025</text><text x="632" y="174" text-anchor="end" class="link">VIEW REPOSITORY →</text></g><g transform="translate(34 1195)"><rect width="652" height="196" rx="20" fill="#0d1627" stroke="#26344a"/><rect x="20" y="20" width="48" height="48" rx="14" fill="#132442" stroke="#31517a"/><text x="44" y="51" text-anchor="middle" class="glyph">S</text><text x="84" y="39" class="name">SkillAura Pathfinder</text><text x="84" y="61" class="badge">PUBLIC</text><text x="20" y="96" class="desc"><tspan x="20" dy="0">Gamified career-intelligence web application.</tspan></text><text x="20" y="144" class="meta">TypeScript · TypeScript · React</text><text x="20" y="174" class="date">UPDATED · May 10, 2026</text><text x="632" y="174" text-anchor="end" class="link">VIEW REPOSITORY →</text></g><g transform="translate(34 1415)"><rect width="652" height="196" rx="20" fill="#0d1627" stroke="#26344a"/><rect x="20" y="20" width="48" height="48" rx="14" fill="#132442" stroke="#31517a"/><text x="44" y="51" text-anchor="middle" class="glyph">S</text><text x="84" y="39" class="name">SkillPath Launch</text><text x="84" y="61" class="badge">PUBLIC</text><text x="20" y="96" class="desc"><tspan x="20" dy="0">SkillMatchr job and career portal with job-seeker and recruiter interfaces.</tspan></text><text x="20" y="144" class="meta">TypeScript · TypeScript · React</text><text x="20" y="174" class="date">UPDATED · Oct 6, 2025</text><text x="632" y="174" text-anchor="end" class="link">VIEW REPOSITORY →</text></g><g transform="translate(34 1635)"><rect width="652" height="196" rx="20" fill="#0d1627" stroke="#26344a"/><rect x="20" y="20" width="48" height="48" rx="14" fill="#132442" stroke="#31517a"/><text x="44" y="51" text-anchor="middle" class="glyph">T</text><text x="84" y="39" class="name">TSB Council</text><text x="84" y="61" class="badge">PUBLIC</text><text x="20" y="96" class="desc"><tspan x="20" dy="0">Governance documentation repository.</tspan></text><text x="20" y="144" class="meta">Repository · Documentation</text><text x="20" y="174" class="date">UPDATED · May 30, 2026</text><text x="632" y="174" text-anchor="end" class="link">VIEW REPOSITORY →</text></g></svg>
